<?xml version="1.0" encoding="UTF-8"?>
<svg version="1.1" xmlns="http://www.w3.org/2000/svg" width="500" height="500">
<path d="M0 0 C165 0 330 0 500 0 C500 165 500 330 500 500 C335 500 170 500 0 500 C0 335 0 170 0 0 Z " fill="#FEFEFE" transform="translate(0,0)"/>
<path d="M0 0 C13.45173611 8.59551369 20.8642674 21.72700367 24.28125 37.0859375 C27.34398877 53.24237802 26.96219997 72.46632374 17.9765625 86.5703125 C17.26113281 87.61574219 16.54570312 88.66117187 15.80859375 89.73828125 C13.90002209 92.28838192 13.90002209 92.28838192 14.1640625 95.3828125 C14.8240625 96.0428125 15.4840625 96.7028125 16.1640625 97.3828125 C17.62269194 101.17524904 17.71152321 105.3886625 17.1640625 109.3828125 C14.76289826 114.18514099 12.02385246 117.08545725 7.1640625 119.3828125 C1.12391719 120.09341783 -3.14787057 119.65803927 -8.8359375 117.3828125 C-13.7859375 117.3828125 -18.7359375 117.3828125 -23.8359375 117.3828125 C-23.8359375 127.9428125 -23.8359375 138.5028125 -23.8359375 149.3828125 C-31.0959375 149.3828125 -38.3559375 149.3828125 -45.8359375 149.3828125 C-45.8359375 143.1128125 -45.8359375 136.8428125 -45.8359375 130.3828125 C-51.23368263 131.02581051 -51.23368263 131.02581051 -56.5859375 131.9453125 C-70.59087147 133.83059207 -83.77216358 131.88878419 -95.8359375 124.3828125 C-98.66888338 122.2012693 -101.30087474 119.90296312 -103.8359375 117.3828125 C-102.3509375 116.8878125 -102.3509375 116.8878125 -100.8359375 116.3828125 C-99.14088664 117.67987 -97.47834574 119.01970915 -95.8359375 120.3828125 C-92.91081038 121.87097867 -92.91081038 121.87097867 -89.8359375 123.0703125 C-88.8253125 123.48667969 -87.8146875 123.90304687 -86.7734375 124.33203125 C-74.31123795 128.78991912 -59.26773105 127.13243785 -46.8359375 123.3828125 C-46.8359375 121.4028125 -46.8359375 119.4228125 -46.8359375 117.3828125 C-58.0559375 117.3828125 -69.2759375 117.3828125 -80.8359375 117.3828125 C-80.8359375 109.4628125 -80.8359375 101.5428125 -80.8359375 93.3828125 C-69.6159375 93.3828125 -58.3959375 93.3828125 -46.8359375 93.3828125 C-46.8359375 82.8228125 -46.8359375 72.2628125 -46.8359375 61.3828125 C-38.9159375 61.3828125 -30.9959375 61.3828125 -22.8359375 61.3828125 C-22.8359375 71.9428125 -22.8359375 82.5028125 -22.8359375 93.3828125 C-21.8459375 93.3828125 -20.8559375 93.3828125 -19.8359375 93.3828125 C-17.33231843 75.53180501 -17.65254643 59.31852557 -28.8359375 44.3828125 C-42.79991471 25.03887832 -42.79991471 25.03887832 -40.8359375 11.3828125 C-38.48475299 5.42260815 -34.42699536 1.21484941 -28.72265625 -1.6953125 C-20.15633517 -4.4309712 -8.05872327 -3.96012862 0 0 Z " fill="#FDFDFD" transform="translate(283.8359375,162.6171875)"/>
<path d="M0 0 C13.45173611 8.59551369 20.8642674 21.72700367 24.28125 37.0859375 C27.34398877 53.24237802 26.96219997 72.46632374 17.9765625 86.5703125 C17.26113281 87.61574219 16.54570312 88.66117187 15.80859375 89.73828125 C13.90002209 92.28838192 13.90002209 92.28838192 14.1640625 95.3828125 C14.8240625 96.0428125 15.4840625 96.7028125 16.1640625 97.3828125 C17.62269194 101.17524904 17.71152321 105.3886625 17.1640625 109.3828125 C14.76289826 114.18514099 12.02385246 117.08545725 7.1640625 119.3828125 C2.05651597 120.11890009 -2.24348391 120.24539153 -6.8359375 117.7578125 C-11.07302421 112.72627203 -12.51121033 108.38049064 -12.32421875 101.85546875 C-11.35453675 96.94499908 -8.0655941 93.91508752 -4.0625 91.1640625 C-0.91475988 90.05959228 1.73520507 90.57018943 5.0390625 90.8828125 C10.06001766 91.02838548 10.06001766 91.02838548 14.2734375 88.69140625 C16.00081274 85.98904344 17.09429449 83.40754389 18.1640625 80.3828125 C18.57140625 79.31675781 18.97875 78.25070313 19.3984375 77.15234375 C25.34144236 58.81451025 23.4039847 38.40839382 15.4765625 21.0078125 C10.99901414 12.70851831 4.94349068 5.19275303 -3.8359375 1.3828125 C-12.58472962 -0.43414859 -23.41182826 -1.68965579 -31.3203125 3.17578125 C-34.96894702 6.08152369 -36.95082469 8.84971139 -37.8359375 13.3828125 C-37.97560887 14.96217338 -38.05564638 16.54757708 -38.0859375 18.1328125 C-38.11171875 18.93203125 -38.1375 19.73125 -38.1640625 20.5546875 C-37.21024305 28.77570279 -32.96645924 34.30141727 -28.0234375 40.6328125 C-16.85188261 55.41012245 -11.2385272 68.43916466 -12.8359375 87.3828125 C-15.43987806 102.49555612 -23.70708457 114.77405771 -36.1484375 123.5703125 C-49.87389978 132.3089345 -64.96806967 134.16632703 -80.8203125 131.19921875 C-89.87707028 128.74732448 -97.23374476 123.94616881 -103.8359375 117.3828125 C-102.3509375 116.8878125 -102.3509375 116.8878125 -100.8359375 116.3828125 C-99.14088664 117.67987 -97.47834574 119.01970915 -95.8359375 120.3828125 C-92.91081038 121.87097867 -92.91081038 121.87097867 -89.8359375 123.0703125 C-88.8253125 123.48667969 -87.8146875 123.90304687 -86.7734375 124.33203125 C-74.31123795 128.78991912 -59.26773105 127.13243785 -46.8359375 123.3828125 C-46.8359375 121.4028125 -46.8359375 119.4228125 -46.8359375 117.3828125 C-58.0559375 117.3828125 -69.2759375 117.3828125 -80.8359375 117.3828125 C-80.8359375 109.4628125 -80.8359375 101.5428125 -80.8359375 93.3828125 C-69.6159375 93.3828125 -58.3959375 93.3828125 -46.8359375 93.3828125 C-46.8359375 82.8228125 -46.8359375 72.2628125 -46.8359375 61.3828125 C-38.9159375 61.3828125 -30.9959375 61.3828125 -22.8359375 61.3828125 C-22.8359375 71.9428125 -22.8359375 82.5028125 -22.8359375 93.3828125 C-21.8459375 93.3828125 -20.8559375 93.3828125 -19.8359375 93.3828125 C-17.33231843 75.53180501 -17.65254643 59.31852557 -28.8359375 44.3828125 C-42.79991471 25.03887832 -42.79991471 25.03887832 -40.8359375 11.3828125 C-38.48475299 5.42260815 -34.42699536 1.21484941 -28.72265625 -1.6953125 C-20.15633517 -4.4309712 -8.05872327 -3.96012862 0 0 Z " fill="#1C1E43" transform="translate(283.8359375,162.6171875)"/>
<path d="M0 0 C13.45173611 8.59551369 20.8642674 21.72700367 24.28125 37.0859375 C27.34398877 53.24237802 26.96219997 72.46632374 17.9765625 86.5703125 C17.26113281 87.61574219 16.54570312 88.66117187 15.80859375 89.73828125 C13.90002209 92.28838192 13.90002209 92.28838192 14.1640625 95.3828125 C15.1540625 96.3728125 15.1540625 96.3728125 16.1640625 97.3828125 C17.62269194 101.17524904 17.71152321 105.3886625 17.1640625 109.3828125 C14.76289826 114.18514099 12.02385246 117.08545725 7.1640625 119.3828125 C2.05651597 120.11890009 -2.24348391 120.24539153 -6.8359375 117.7578125 C-11.07302421 112.72627203 -12.51121033 108.38049064 -12.32421875 101.85546875 C-11.35453675 96.94499908 -8.0655941 93.91508752 -4.0625 91.1640625 C-0.91475988 90.05959228 1.73520507 90.57018943 5.0390625 90.8828125 C10.06001766 91.02838548 10.06001766 91.02838548 14.2734375 88.69140625 C16.00081274 85.98904344 17.09429449 83.40754389 18.1640625 80.3828125 C18.57140625 79.31675781 18.97875 78.25070313 19.3984375 77.15234375 C25.34144236 58.81451025 23.4039847 38.40839382 15.4765625 21.0078125 C10.99901414 12.70851831 4.94349068 5.19275303 -3.8359375 1.3828125 C-12.58472962 -0.43414859 -23.41182826 -1.68965579 -31.3203125 3.17578125 C-34.96894702 6.08152369 -36.95082469 8.84971139 -37.8359375 13.3828125 C-37.97560887 14.96217338 -38.05564638 16.54757708 -38.0859375 18.1328125 C-38.11171875 18.93203125 -38.1375 19.73125 -38.1640625 20.5546875 C-37.21024305 28.77570279 -32.96645924 34.30141727 -28.0234375 40.6328125 C-16.81775177 55.45526943 -11.32787746 68.38999838 -12.8359375 87.3828125 C-13.58419152 90.82997118 -14.56312526 94.0947142 -15.8359375 97.3828125 C-17.8984375 95.8828125 -17.8984375 95.8828125 -19.8359375 93.3828125 C-19.64374261 91.46713079 -19.43856591 89.55129952 -19.14868164 87.64794922 C-16.95742807 71.77718367 -19.12207737 57.35592834 -28.8359375 44.3828125 C-42.79991471 25.03887832 -42.79991471 25.03887832 -40.8359375 11.3828125 C-38.48475299 5.42260815 -34.42699536 1.21484941 -28.72265625 -1.6953125 C-20.15633517 -4.4309712 -8.05872327 -3.96012862 0 0 Z " fill="#3A394C" transform="translate(283.8359375,162.6171875)"/>
<path d="M0 0 C2.866875 -0.0825 5.73375 -0.165 8.6875 -0.25 C9.58170654 -0.28641602 10.47591309 -0.32283203 11.3972168 -0.36035156 C15.39550265 -0.41595181 17.55195422 -0.25796575 21.09375 1.78125 C23 4 23 4 22.8125 7.75 C22.544375 8.8225 22.27625 9.895 22 11 C21.34 11 20.68 11 20 11 C20.66 11.53625 21.32 12.0725 22 12.625 C24 15 24 15 24.5 18 C23.89445555 21.63326668 22.8441085 22.74144325 20 25 C17.703463 26.1482685 16.41686833 26.11561175 13.8671875 26.09765625 C13.14128418 26.09515869 12.41538086 26.09266113 11.66748047 26.09008789 C10.74596191 26.08098389 9.82444336 26.07187988 8.875 26.0625 C5.94625 26.041875 3.0175 26.02125 0 26 C0 17.42 0 8.84 0 0 Z " fill="#212442" transform="translate(156,317)"/>
<path d="M0 0 C0 10.56 0 21.12 0 32 C-7.26 32 -14.52 32 -22 32 C-22 26.06 -22 20.12 -22 14 C-19.3084375 12.7625 -19.3084375 12.7625 -16.5625 11.5 C-11.14961945 8.81921319 -6.98314971 5.71351702 -2.64453125 1.5390625 C-1 0 -1 0 0 0 Z " fill="#ECB13E" transform="translate(260,280)"/>
<path d="M0 0 C3.63467079 1.62400184 4.77408696 2.66113044 7 6 C7.67624134 10.56462901 8.43458323 15.9009319 5.7265625 19.86328125 C1.17180677 23.6292866 -2.19449866 24.39359331 -8 24 C-12.09206332 22.191879 -14.69807584 19.83654027 -17 16 C-17.62391938 11.08663491 -17.53263057 9.0272161 -15.25 4.625 C-10.91676086 -0.43044567 -6.3636043 -0.74999622 0 0 Z " fill="#EBB344" transform="translate(291,256)"/>
<path d="M0 0 C14.37421439 -0.40681739 14.37421439 -0.40681739 20 3 C22 5 22 5 22.375 8.875 C22.31541346 12.15225968 22.14649924 12.81687595 20 15.5 C19.01 16.2425 19.01 16.2425 18 17 C18.28875 17.556875 18.5775 18.11375 18.875 18.6875 C20.0413253 21.08494645 21.0339881 23.51596939 22 26 C19.69 26 17.38 26 15 26 C14.62875 25.030625 14.2575 24.06125 13.875 23.0625 C12.28947638 19.68859031 12.28947638 19.68859031 8.8125 19.125 C7.4203125 19.063125 7.4203125 19.063125 6 19 C6 21.31 6 23.62 6 26 C4.02 26 2.04 26 0 26 C0 17.42 0 8.84 0 0 Z " fill="#1B1D3F" transform="translate(298,317)"/>
<path d="M0 0 C2.31 0 4.62 0 7 0 C9.01117072 4.32824767 11.0089905 8.6624436 13 13 C13.3403125 13.72960937 13.680625 14.45921875 14.03125 15.2109375 C15.64659663 18.78085354 16.52575912 22.11122482 17 26 C15.02 26 13.04 26 11 26 C10.67 24.02 10.34 22.04 10 20 C3.565 20.495 3.565 20.495 -3 21 C-3.99 23.475 -3.99 23.475 -5 26 C-6.98 26 -8.96 26 -11 26 C-10.38496257 21.59500216 -8.66855201 18.01788214 -6.625 14.125 C-4.21875822 9.48584742 -2.01052516 4.82279349 0 0 Z " fill="#1E2042" transform="translate(277,317)"/>
<path d="M0 0 C6.6 0 13.2 0 20 0 C20 1.65 20 3.3 20 5 C15.38 5 10.76 5 6 5 C6 6.65 6 8.3 6 10 C9.96 10 13.92 10 18 10 C18 11.65 18 13.3 18 15 C14.04 15 10.08 15 6 15 C6 16.98 6 18.96 6 21 C10.62 21 15.24 21 20 21 C20 22.65 20 24.3 20 26 C13.4 26 6.8 26 0 26 C0 17.42 0 8.84 0 0 Z " fill="#1F2140" transform="translate(325,317)"/>
<path d="M0 0 C1.98 0 3.96 0 6 0 C6 3.63 6 7.26 6 11 C6.66 11 7.32 11 8 11 C8.26296875 10.41734375 8.5259375 9.8346875 8.796875 9.234375 C10.8151688 5.48611509 13.60278123 2.55318926 17 0 C20.4375 -0.4375 20.4375 -0.4375 23 0 C20.71461395 4.08963819 18.04293074 7.46362104 15 11 C16.55715875 14.51590054 18.68580036 17.22811262 21.125 20.1875 C25 24.89679715 25 24.89679715 25 26 C21.875 26.4375 21.875 26.4375 18 26 C15.55430265 23.97871868 13.66623901 21.6977203 12 19 C12 18.34 12 17.68 12 17 C9.24358584 17.49756092 9.24358584 17.49756092 7 19 C6.63239269 21.32817964 6.29758419 23.6618385 6 26 C4.02 26 2.04 26 0 26 C0 17.42 0 8.84 0 0 Z " fill="#202243" transform="translate(214,317)"/>
<path d="M0 0 C1.25425781 0.01804688 2.50851562 0.03609375 3.80078125 0.0546875 C5.22970703 0.08949219 5.22970703 0.08949219 6.6875 0.125 C6.6875 0.455 6.6875 0.785 6.6875 1.125 C5.05941406 1.38023437 5.05941406 1.38023437 3.3984375 1.640625 C1.95299711 1.88466039 0.50769144 2.12949462 -0.9375 2.375 C-1.65035156 2.48457031 -2.36320312 2.59414062 -3.09765625 2.70703125 C-8.85756621 3.71105225 -13.10841273 5.6929037 -17.125 10.125 C-19.16613115 13.56269458 -19.48697471 16.92250991 -19.5625 20.875 C-19.58828125 21.67421875 -19.6140625 22.4734375 -19.640625 23.296875 C-18.68680555 31.51789029 -14.44302174 37.04360477 -9.5 43.375 C1.70568573 58.19745693 7.19556004 71.13218588 5.6875 90.125 C4.93924598 93.57215868 3.96031224 96.8369017 2.6875 100.125 C0.625 98.625 0.625 98.625 -1.3125 96.125 C-1.12030511 94.20931829 -0.91512841 92.29348702 -0.62524414 90.39013672 C1.56600943 74.51937117 -0.59863987 60.09811584 -10.3125 47.125 C-24.27647721 27.78106582 -24.27647721 27.78106582 -22.3125 14.125 C-19.95296778 8.14363436 -15.87189808 3.89521574 -10.11328125 1.03125 C-6.62671102 -0.09690104 -3.65713856 -0.06835773 0 0 Z " fill="#3E3E51" transform="translate(265.3125,159.875)"/>
<path d="M0 0 C1.98 0 3.96 0 6 0 C6.06058594 1.18078125 6.12117187 2.3615625 6.18359375 3.578125 C6.26802582 5.1354277 6.35267249 6.69271879 6.4375 8.25 C6.47681641 9.02730469 6.51613281 9.80460937 6.55664062 10.60546875 C6.59853516 11.35957031 6.64042969 12.11367188 6.68359375 12.890625 C6.72025146 13.58188477 6.75690918 14.27314453 6.79467773 14.98535156 C7.00675524 17.06628329 7.44508677 18.98572422 8 21 C10.64 21 13.28 21 16 21 C16 20.34 16 19.68 16 19 C16.66 19 17.32 19 18 19 C18 12.73 18 6.46 18 0 C19.98 0 21.96 0 24 0 C24.02903577 3.10414702 24.0468107 6.20825909 24.0625 9.3125 C24.07087891 10.19357422 24.07925781 11.07464844 24.08789062 11.98242188 C24.09272461 13.25375977 24.09272461 13.25375977 24.09765625 14.55078125 C24.10551147 15.72120972 24.10551147 15.72120972 24.11352539 16.9152832 C23.94326786 20.04179735 23.18025406 21.782452 21.1875 24.1875 C16.28387132 26.97583788 11.50775836 26.891297 6 26 C2.26897548 23.36633563 0.82785238 21.39394615 0 17 C-0.07708723 15.63199181 -0.10803609 14.26076408 -0.09765625 12.890625 C-0.09443359 12.13652344 -0.09121094 11.38242187 -0.08789062 10.60546875 C-0.07951172 9.82816406 -0.07113281 9.05085938 -0.0625 8.25 C-0.05798828 7.45722656 -0.05347656 6.66445313 -0.04882812 5.84765625 C-0.03708565 3.89840492 -0.01915146 1.94919262 0 0 Z " fill="#262746" transform="translate(184,317)"/>
<path d="M0 0 C0.99 0.66 1.98 1.32 3 2 C4.32567199 2.68177416 5.65753688 3.35191436 7 4 C6.51273437 4.56074219 6.02546875 5.12148438 5.5234375 5.69921875 C2.9671653 9.55984522 3.46531462 13.52372367 4 18 C4.78392495 20.54550342 5.76076124 22.62479237 7 25 C5.25523569 26.74476431 3.00099755 26.03502104 0.68017578 26.03613281 C-5.60218365 26.11211208 -10.13291253 26.18766674 -14.875 30.75 C-15.54402344 31.46542969 -16.21304688 32.18085938 -16.90234375 32.91796875 C-20.29008803 36.28047843 -24.50038002 38.44342069 -29 40 C-29.66 39.67 -30.32 39.34 -31 39 C-31 38.01 -31 37.02 -31 36 C-30.40574219 35.75507813 -29.81148437 35.51015625 -29.19921875 35.2578125 C-17.59470747 30.02405158 -8.66751334 21.41576048 -3 10 C-1.77004737 6.70690102 -0.78044335 3.42651794 0 0 Z " fill="#F4F1E6" transform="translate(269,254)"/>
<path d="M0 0 C3.0122214 0.59980776 4.95663424 1.52782374 7.4375 3.3125 C19.51402496 10.92115309 34.29207024 11.89984107 48.10546875 9.31640625 C51.1062646 8.6324735 54.0540651 7.88854051 57 7 C57 5.35 57 3.7 57 2 C57.495 3.98 57.495 3.98 58 6 C58.66 4.68 59.32 3.36 60 2 C60.99 2.33 61.98 2.66 63 3 C63 3.66 63 4.32 63 5 C64.65 5.33 66.3 5.66 68 6 C59.28521316 14.13380105 46.64546013 16.44295727 35.10546875 16.1796875 C21.4201455 15.38783232 9.56770193 11.21492882 0 1 C0 0.67 0 0.34 0 0 Z " fill="#262849" transform="translate(180,279)"/>
<path d="M0 0 C3.1875 1.5 3.1875 1.5 5 3 C4.34 4.32 3.68 5.64 3 7 C2.01 6.67 1.02 6.34 0 6 C-2.1843371 5.76744974 -2.1843371 5.76744974 -4.5 5.75 C-5.2734375 5.72421875 -6.046875 5.6984375 -6.84375 5.671875 C-9.06189469 5.84190857 -9.06189469 5.84190857 -10.7578125 7.265625 C-12.92434802 10.29059913 -12.52718517 13.43593122 -12 17 C-11.10242444 19.14780077 -11.10242444 19.14780077 -9 20 C-4.52378055 20.33782788 -0.39409892 19.85738516 4 19 C4.33 20.32 4.66 21.64 5 23 C0.84370915 26.43968898 -3.15278211 26.56466183 -8.3359375 26.41796875 C-12.61755235 25.74621979 -14.17286483 24.26207904 -17 21 C-19.35565187 17.03822185 -20.00548916 12.50765904 -19 8 C-14.03564855 0.06617452 -9.01087006 -0.77903776 0 0 Z " fill="#222445" transform="translate(259,317)"/>
<path d="M0 0 C2.866875 -0.0825 5.73375 -0.165 8.6875 -0.25 C9.58170654 -0.28641602 10.47591309 -0.32283203 11.3972168 -0.36035156 C15.4281649 -0.41640602 17.52673086 -0.28492734 21.0625 1.84375 C23 4 23 4 23.3125 6.75 C23.209375 7.4925 23.10625 8.235 23 9 C22.01 9.33 21.02 9.66 20 10 C19.67 9.01 19.34 8.02 19 7 C16.15587683 5.15006148 13.59509249 4.67015522 10.25 4.375 C9.05117187 4.26285156 9.05117187 4.26285156 7.828125 4.1484375 C7.22484375 4.09945313 6.6215625 4.05046875 6 4 C6 6.31 6 8.62 6 11 C11.94 10.505 11.94 10.505 18 10 C18.33 10.66 18.66 11.32 19 12 C18.67 12.33 18.34 12.66 18 13 C18 13.99 18 14.98 18 16 C13.71 15.67 9.42 15.34 5 15 C5 16.65 5 18.3 5 20 C4.67 20.99 4.34 21.98 4 23 C4.33 22.67 4.66 22.34 5 22 C5.99 22.33 6.98 22.66 8 23 C8 23.99 8 24.98 8 26 C5.36 26 2.72 26 0 26 C0 17.42 0 8.84 0 0 Z " fill="#212345" transform="translate(156,317)"/>
<path d="M0 0 C3.63467079 1.62400184 4.77408696 2.66113044 7 6 C7.67624134 10.56462901 8.43458323 15.9009319 5.7265625 19.86328125 C1.17180677 23.6292866 -2.19449866 24.39359331 -8 24 C-12.09206332 22.191879 -14.69807584 19.83654027 -17 16 C-17.62391938 11.08663491 -17.53263057 9.0272161 -15.25 4.625 C-10.91676086 -0.43044567 -6.3636043 -0.74999622 0 0 Z M-13 6 C-14.61588379 9.23176757 -14.57451407 12.50615283 -14 16 C-12.01078114 18.9838283 -10.61497432 20.60276841 -7.0625 21.4765625 C-3.17854622 21.75608948 -1.32204113 21.2079849 2 19.0625 C4.6601163 14.98919692 4.98443537 11.74480111 4 7 C2.12379387 4.49839182 0.76108697 3.38054348 -2 2 C-7.11519005 1.43164555 -9.32841583 2.43331824 -13 6 Z " fill="#E2E2DE" transform="translate(291,256)"/>
<path d="M0 0 C-2.18850656 1.45900437 -4.25018632 2.66640408 -6.5625 3.875 C-8.62722257 5.06853161 -9.91394858 5.89524175 -11.4375 7.75 C-12.48848845 11.95395378 -13.14858566 15.94579871 -10.984375 19.81640625 C-8.83528786 22.50276517 -7.2859381 23.9046873 -4 25 C1.72117607 25.53973359 4.49625695 24.53865525 9 21 C10.29688975 19.92656396 10.29688975 19.92656396 10.1328125 17.3828125 C10.12894531 15.77019531 10.12894531 15.77019531 10.125 14.125 C10.12757813 13.05507813 10.13015625 11.98515625 10.1328125 10.8828125 C10.12784318 7.92980831 10.12784318 7.92980831 9 5 C8.01 4.67 7.02 4.34 6 4 C6 3.01 6 2.02 6 1 C6.99 1 7.98 1 9 1 C13.51903439 5.78485994 14.38674537 9.43677693 14.27734375 15.9765625 C13.64261597 20.60739334 10.72750364 23.32572833 7.4375 26.375 C2.58057468 28.67100106 -1.71654113 28.79050224 -7 28 C-11.38359183 25.62555443 -13.35714677 22.66916182 -15 18 C-15.71786027 13.6569454 -16.01604063 9.79204578 -13.79296875 5.87109375 C-9.75903292 0.97930828 -6.45015308 -1.79170919 0 0 Z " fill="#31324D" transform="translate(287,254)"/>
<path d="M0 0 C0.99 0.33 1.98 0.66 3 1 C3 1.99 3 2.98 3 4 C3.99 4 4.98 4 6 4 C6.66 7.3 7.32 10.6 8 14 C6.02 14 4.04 14 2 14 C1.67 14.99 1.34 15.98 1 17 C0.01 17.66 -0.98 18.32 -2 19 C-3.20450304 21.55183404 -3.20450304 21.55183404 -4 24 C-5.98 24 -7.96 24 -10 24 C-9.38473958 19.54989727 -7.62495293 15.93168216 -5.5625 12 C-3.52249523 8.06300111 -1.56617796 4.15548726 0 0 Z " fill="#232747" transform="translate(276,319)"/>
<path d="M0 0 C2.22808159 -0.10853983 4.45769932 -0.18583307 6.6875 -0.25 C7.92886719 -0.29640625 9.17023438 -0.3428125 10.44921875 -0.390625 C14.57090979 0.06280636 16.16073285 1.03167525 19 4 C19.3125 6.75 19.3125 6.75 19 9 C16.525 8.505 16.525 8.505 14 8 C13.690625 8.825 13.38125 9.65 13.0625 10.5 C11 13 11 13 8.796875 13.33203125 C6.51382601 13.31408275 4.27262304 13.2143984 2 13 C1.93941406 12.22914063 1.87882812 11.45828125 1.81640625 10.6640625 C1.73261719 9.66117187 1.64882813 8.65828125 1.5625 7.625 C1.48128906 6.62726563 1.40007812 5.62953125 1.31640625 4.6015625 C1.15034374 2.02072387 1.15034374 2.02072387 0 0 Z " fill="#232546" transform="translate(301,318)"/>
<path d="M0 0 C1.98 0.495 1.98 0.495 4 1 C6.72265495 12.91161539 7.47167596 24.44817045 3 36 C0.9375 34.5 0.9375 34.5 -1 32 C-0.79510205 30.15591841 -0.5769683 28.31242062 -0.29516602 26.47851562 C0.29648519 21.51040727 0.10134359 16.49588281 0.0625 11.5 C0.05798828 10.39140625 0.05347656 9.2828125 0.04882812 8.140625 C0.03713158 5.42702601 0.02074086 2.71354239 0 0 Z " fill="#252744" transform="translate(265,224)"/>
<path d="M0 0 C0.845625 0.144375 1.69125 0.28875 2.5625 0.4375 C0.27711395 4.52713819 -2.39456926 7.90112104 -5.4375 11.4375 C-3.88034125 14.95340054 -1.75169964 17.66561262 0.6875 20.625 C4.5625 25.33429715 4.5625 25.33429715 4.5625 26.4375 C-1.74443069 26.92264851 -1.74443069 26.92264851 -4.9375 24.6875 C-5.4325 23.945 -5.9275 23.2025 -6.4375 22.4375 C-6.251875 21.798125 -6.06625 21.15875 -5.875 20.5 C-5.6584375 19.4790625 -5.6584375 19.4790625 -5.4375 18.4375 C-7.06199243 16.72970027 -8.72970027 15.06199243 -10.4375 13.4375 C-10.4375 12.4475 -10.4375 11.4575 -10.4375 10.4375 C-11.4275 10.9325 -11.4275 10.9325 -12.4375 11.4375 C-9.95838202 5.94455233 -6.2006015 0.78916746 0 0 Z " fill="#303350" transform="translate(234.4375,316.5625)"/>
<path d="M0 0 C1.98 0 3.96 0 6 0 C6.06058594 1.15757812 6.12117187 2.31515625 6.18359375 3.5078125 C6.26805502 5.04688457 6.35270018 6.58594655 6.4375 8.125 C6.47681641 8.88554687 6.51613281 9.64609375 6.55664062 10.4296875 C6.79509002 14.68509203 7.20230237 18.80370826 8 23 C7.401875 22.67 6.80375 22.34 6.1875 22 C3.94613529 20.79212012 3.94613529 20.79212012 1 21 C0.21311555 18.22276075 -0.11949924 15.77389923 -0.09765625 12.890625 C-0.09443359 12.13652344 -0.09121094 11.38242187 -0.08789062 10.60546875 C-0.07951172 9.82816406 -0.07113281 9.05085938 -0.0625 8.25 C-0.05798828 7.45722656 -0.05347656 6.66445313 -0.04882812 5.84765625 C-0.03708565 3.89840492 -0.01915146 1.94919262 0 0 Z " fill="#373956" transform="translate(184,317)"/>
<path d="M0 0 C1.98 0.66 3.96 1.32 6 2 C5.6875 4.375 5.6875 4.375 5 7 C4.01 7.66 3.02 8.32 2 9 C2.28875 9.556875 2.5775 10.11375 2.875 10.6875 C4.0413253 13.08494645 5.0339881 15.51596939 6 18 C3.69 18 1.38 18 -1 18 C-1.37125 17.030625 -1.7425 16.06125 -2.125 15.0625 C-3.71052362 11.68859031 -3.71052362 11.68859031 -7.1875 11.125 C-8.115625 11.08375 -9.04375 11.0425 -10 11 C-9.505 10.54625 -9.01 10.0925 -8.5 9.625 C-6.77390663 8.12364481 -6.77390663 8.12364481 -7 6 C-6.21625 5.938125 -5.4325 5.87625 -4.625 5.8125 C-3.75875 5.544375 -2.8925 5.27625 -2 5 C-0.62533375 2.52363988 -0.62533375 2.52363988 0 0 Z " fill="#272949" transform="translate(314,325)"/>
<path d="M0 0 C0.33 0 0.66 0 1 0 C1 10.56 1 21.12 1 32 C-6.26 32 -13.52 32 -21 32 C-21 26.06 -21 20.12 -21 14 C-20.01 14.495 -20.01 14.495 -19 15 C-19 19.95 -19 24.9 -19 30 C-12.73 30.33 -6.46 30.66 0 31 C-0.495 18.625 -0.495 18.625 -1 6 C-3.97 8.64 -6.94 11.28 -10 14 C-11.32 13.01 -12.64 12.02 -14 11 C-12.98679688 10.31164062 -12.98679688 10.31164062 -11.953125 9.609375 C-11.06109375 8.99578125 -10.1690625 8.3821875 -9.25 7.75 C-8.36828125 7.14671875 -7.4865625 6.5434375 -6.578125 5.921875 C-4.14718916 4.10972283 -2.11963061 2.15782216 0 0 Z " fill="#DDB25C" transform="translate(259,280)"/>
<path d="M0 0 C3.0122214 0.59980776 4.95663424 1.52782374 7.4375 3.3125 C17.42218692 9.6680664 28.47750933 10.6812589 40 11 C40 11.33 40 11.66 40 12 C39.21753906 12.04898437 38.43507812 12.09796875 37.62890625 12.1484375 C36.11103516 12.26058594 36.11103516 12.26058594 34.5625 12.375 C33.55316406 12.44460938 32.54382813 12.51421875 31.50390625 12.5859375 C30.67761719 12.72257812 29.85132813 12.85921875 29 13 C28.67 13.66 28.34 14.32 28 15 C17.11509797 14.58134992 7.36898249 8.86747248 0 1 C0 0.67 0 0.34 0 0 Z " fill="#393955" transform="translate(180,279)"/>
<path d="M0 0 C1.98 0 3.96 0 6 0 C6 3.63 6 7.26 6 11 C5.34 11 4.68 11 4 11 C4.33 12.98 4.66 14.96 5 17 C4.360625 17.12375 3.72125 17.2475 3.0625 17.375 C2.381875 17.58125 1.70125 17.7875 1 18 C0.67 18.66 0.34 19.32 0 20 C0 13.4 0 6.8 0 0 Z " fill="#1C1E3F" transform="translate(202,317)"/>
<path d="M0 0 C0.33 0.66 0.66 1.32 1 2 C5.95 2 10.9 2 16 2 C16 3.65 16 5.3 16 7 C10.06 7 4.12 7 -2 7 C-2.33 5.68 -2.66 4.36 -3 3 C-2.01 3 -1.02 3 0 3 C0 2.01 0 1.02 0 0 Z " fill="#232745" transform="translate(329,336)"/>
<path d="M0 0 C0.33 0 0.66 0 1 0 C1.12117188 0.59167969 1.24234375 1.18335938 1.3671875 1.79296875 C1.53476562 2.58316406 1.70234375 3.37335938 1.875 4.1875 C2.11863281 5.35345703 2.11863281 5.35345703 2.3671875 6.54296875 C3.06680485 9.47653925 3.06680485 9.47653925 5 14 C0.38 14 -4.24 14 -9 14 C-2.25 3.375 -2.25 3.375 0 0 Z " fill="#E4B85D" transform="translate(269,266)"/>
<path d="M0 0 C6.0546875 -0.1953125 6.0546875 -0.1953125 8 0 C8.66 0.66 9.32 1.32 10 2 C9.43181818 7.56818182 9.43181818 7.56818182 8 9 C5.32941149 9.14115161 2.67567762 9.04247107 0 9 C0 6.03 0 3.06 0 0 Z " fill="#F2F5F9" transform="translate(304,322)"/>
<path d="M0 0 C0.99 0.66 1.98 1.32 3 2 C4.32567199 2.68177416 5.65753688 3.35191436 7 4 C6.51273437 4.56074219 6.02546875 5.12148438 5.5234375 5.69921875 C2.9671653 9.55984522 3.46531462 13.52372367 4 18 C4.78392495 20.54550342 5.76076124 22.62479237 7 25 C6.34 25.33 5.68 25.66 5 26 C2.27216803 20.99897473 0.45477051 16.5789284 -0.60546875 10.98046875 C-0.99653925 8.80240296 -0.99653925 8.80240296 -2 6 C-1.0625 2.8125 -1.0625 2.8125 0 0 Z " fill="#E8E2DA" transform="translate(269,254)"/>
<path d="M0 0 C0 1.65 0 3.3 0 5 C-4.62 5 -9.24 5 -14 5 C-14 6.65 -14 8.3 -14 10 C-15.52352768 7.06176804 -16.78534783 4.07745908 -18 1 C-15.1875205 0.83298107 -12.37501801 0.66636797 -9.5625 0.5 C-8.76005859 0.45230469 -7.95761719 0.40460938 -7.13085938 0.35546875 C-1.11328125 0 -1.11328125 0 0 0 Z " fill="#2A2C4C" transform="translate(345,317)"/>
<path d="M0 0 C0.66 0.66 1.32 1.32 2 2 C1.77872516 7.48493381 0.01030704 11.36720304 -2.9375 15.875 C-3.29779297 16.45507812 -3.65808594 17.03515625 -4.02929688 17.6328125 C-6.70652 21.85326 -6.70652 21.85326 -9 23 C-9.99 22.67 -10.98 22.34 -12 22 C-12 22.66 -12 23.32 -12 24 C-14.97 23.67 -17.94 23.34 -21 23 C-20.01 21.515 -20.01 21.515 -19 20 C-16.828125 20.05859375 -16.828125 20.05859375 -14.25 20.4375 C-11.55282839 20.62298471 -11.55282839 20.62298471 -9 20 C-3.73279617 14.79822727 -1.70297008 7.02101699 0 0 Z " fill="#444257" transform="translate(305,233)"/>
<path d="M0 0 C0.33 0 0.66 0 1 0 C1.33 5.61 1.66 11.22 2 17 C2.66 17 3.32 17 4 17 C4.33 16.01 4.66 15.02 5 14 C4.48594831 18.96916636 3.76615118 23.29026351 2 28 C-1.92112756 24.77477221 -1.92112756 24.77477221 -2.27050781 21.34277344 C-2.16577148 20.35825195 -2.06103516 19.37373047 -1.953125 18.359375 C-1.7984375 16.75449219 -1.7984375 16.75449219 -1.640625 15.1171875 C-1.51171875 14.00601563 -1.3828125 12.89484375 -1.25 11.75 C-1.1365625 10.62335938 -1.023125 9.49671875 -0.90625 8.3359375 C-0.62341133 5.55469055 -0.32067792 2.77709611 0 0 Z " fill="#343353" transform="translate(266,232)"/>
<path d="M0 0 C2.22282509 1.91266345 3.45421908 3.36882862 5.125 5.875 C4.795 6.865 4.465 7.855 4.125 8.875 C3.55652344 8.19953125 2.98804688 7.5240625 2.40234375 6.828125 C1.63019531 5.93609375 0.85804688 5.0440625 0.0625 4.125 C-0.69160156 3.24328125 -1.44570313 2.3615625 -2.22265625 1.453125 C-7.81144514 -3.97927657 -12.76563419 -5.71214628 -20.3125 -6.375 C-21.04404297 -6.45234375 -21.77558594 -6.5296875 -22.52929688 -6.609375 C-24.30975885 -6.7955671 -26.09223355 -6.96234664 -27.875 -7.125 C-27.875 -7.455 -27.875 -7.785 -27.875 -8.125 C-15.91236574 -10.04756622 -9.29195419 -7.71443816 0 0 Z " fill="#3B394C" transform="translate(291.875,169.125)"/>
<path d="M0 0 C1.62463842 -0.05395478 3.24978541 -0.09277195 4.875 -0.125 C5.77992188 -0.14820313 6.68484375 -0.17140625 7.6171875 -0.1953125 C10 0 10 0 12 2 C11.67 3.32 11.34 4.64 11 6 C7.37 6 3.74 6 0 6 C0 4.02 0 2.04 0 0 Z " fill="#EEF3F7" transform="translate(162,332)"/>
<path d="M0 0 C3.63467079 1.62400184 4.77408696 2.66113044 7 6 C7.1953125 8.48046875 7.1953125 8.48046875 7.125 11.1875 C7.10695313 12.08855469 7.08890625 12.98960937 7.0703125 13.91796875 C7.04710937 14.60503906 7.02390625 15.29210937 7 16 C6.34 16 5.68 16 5 16 C4.87625 14.14375 4.87625 14.14375 4.75 12.25 C4.36645256 9.10935789 4.10108751 8.12717461 2.0625 5.5625 C-1.4405721 2.9086575 -3.61726809 2.73703609 -8 3 C-10.30230766 3.89831016 -10.30230766 3.89831016 -12 5 C-11.625 3.0625 -11.625 3.0625 -11 1 C-7.55359623 -0.72320188 -3.7757718 -0.3723512 0 0 Z " fill="#F2F0E6" transform="translate(291,256)"/>
<path d="M0 0 C1.47906892 -0.02689216 2.95827483 -0.04634621 4.4375 -0.0625 C5.26121094 -0.07410156 6.08492187 -0.08570313 6.93359375 -0.09765625 C9 0 9 0 10 1 C10.04063832 2.66617115 10.042721 4.33388095 10 6 C6.78548731 7.60725635 3.56387464 7.05748185 0 7 C0 4.69 0 2.38 0 0 Z " fill="#DADDE6" transform="translate(162,321)"/>
<path d="M0 0 C0.99 0.99 1.98 1.98 3 3 C-0.4524818 8.61946506 -3.67267854 13.0679294 -9 17 C-9.33 15.35 -9.66 13.7 -10 12 C-8.35 11.67 -6.7 11.34 -5 11 C-5 9.35 -5 7.7 -5 6 C-3.68 5.67 -2.36 5.34 -1 5 C-0.67 3.35 -0.34 1.7 0 0 Z " fill="#252548" transform="translate(261,265)"/>
<path d="M0 0 C-2.16264012 3.98381075 -4.71211176 6.88983545 -8 10 C-8.99 9.67 -9.98 9.34 -11 9 C-8.95145092 1.90886858 -7.67109219 -0.51140615 0 0 Z " fill="#292B47" transform="translate(237,317)"/>
<path d="M0 0 C0.66 0.33 1.32 0.66 2 1 C2 6.94 2 12.88 2 19 C1.01 18.67 0.02 18.34 -1 18 C-2.13487578 15.06113094 -2.16367591 12.1257204 -2.1875 9 C-2.20167969 8.154375 -2.21585938 7.30875 -2.23046875 6.4375 C-1.98543096 3.84591384 -1.30584901 2.22975008 0 0 Z " fill="#181B3F" transform="translate(188,318)"/>
<path d="M0 0 C2.475 0.495 2.475 0.495 5 1 C5.33 2.32 5.66 3.64 6 5 C5.34 5 4.68 5 4 5 C4.66 5.53625 5.32 6.0725 6 6.625 C8 9 8 9 8.25 12.25 C8.1675 13.1575 8.085 14.065 8 15 C7.67 15 7.34 15 7 15 C7 13.35 7 11.7 7 10 C6.01 10 5.02 10 4 10 C3.67 11.65 3.34 13.3 3 15 C2.34 14.67 1.68 14.34 1 14 C0.3125 11.5 0.3125 11.5 0 9 C0.33 8.67 0.66 8.34 1 8 C1.33 7.01 1.66 6.02 2 5 C1.34 4.67 0.68 4.34 0 4 C0 2.68 0 1.36 0 0 Z " fill="#363956" transform="translate(172,323)"/>
<path d="M0 0 C0.33 0 0.66 0 1 0 C1 2.64 1 5.28 1 8 C1.66 8 2.32 8 3 8 C1.48603365 12.23910579 -1.09387835 13.93638856 -5 16 C-8.875 16.25 -8.875 16.25 -12 16 C-12.33 15.34 -12.66 14.68 -13 14 C-10.36 14 -7.72 14 -5 14 C-5 13.34 -5 12.68 -5 12 C-4.360625 11.46375 -3.72125 10.9275 -3.0625 10.375 C-0.12796581 6.99583942 -0.29430229 4.41453428 0 0 Z " fill="#EDE8E6" transform="translate(295,264)"/>
<path d="M0 0 C0.66 0 1.32 0 2 0 C2.125 7.625 2.125 7.625 1 11 C-0.62332967 12.38576923 -2.28724465 13.72641268 -4 15 C-4.66 14.67 -5.32 14.34 -6 14 C-6 12.02 -6 10.04 -6 8 C-4.35 7.67 -2.7 7.34 -1 7 C-0.67 4.69 -0.34 2.38 0 0 Z " fill="#282A4B" transform="translate(206,328)"/>
<path d="M0 0 C-0.99 0.495 -0.99 0.495 -2 1 C-1.34 1.33 -0.68 1.66 0 2 C-0.33 2.99 -0.66 3.98 -1 5 C-4.3 4.67 -7.6 4.34 -11 4 C-11.33 2.68 -11.66 1.36 -12 0 C-7.6835078 -0.76173392 -4.25566547 -1.16063604 0 0 Z " fill="#1B1C3D" transform="translate(175,328)"/>
<path d="M0 0 C6.40818182 -0.36272727 6.40818182 -0.36272727 8.9375 1.1875 C10.32851983 3.56041618 10.21917317 5.29686424 10 8 C9.01 8.33 8.02 8.66 7 9 C6.67 8.01 6.34 7.02 6 6 C2.99992729 4.29144978 2.99992729 4.29144978 0 3 C0 2.01 0 1.02 0 0 Z " fill="#292B4B" transform="translate(169,318)"/>
<path d="M0 0 C0.33 0.66 0.66 1.32 1 2 C-1.24497054 7.2382646 -5.70920956 10.46341026 -10 14 C-11.32 13.01 -12.64 12.02 -14 11 C-12.98679688 10.31164062 -12.98679688 10.31164062 -11.953125 9.609375 C-11.06109375 8.99578125 -10.1690625 8.3821875 -9.25 7.75 C-8.36828125 7.14671875 -7.4865625 6.5434375 -6.578125 5.921875 C-4.14566506 4.10858668 -2.08271931 2.19950731 0 0 Z " fill="#E7BB6A" transform="translate(259,280)"/>
<path d="M0 0 C0.12375 0.61875 0.2475 1.2375 0.375 1.875 C0.87197356 4.19120832 0.87197356 4.19120832 3 6 C4.27322729 8.32176742 5.15862416 10.47587248 6 13 C5.34 13.66 4.68 14.32 4 15 C2.99106869 13.90398831 1.99311775 12.79786082 1 11.6875 C0.443125 11.07261719 -0.11375 10.45773437 -0.6875 9.82421875 C-2 8 -2 8 -2 5 C-2.99 5.495 -2.99 5.495 -4 6 C-2.84826645 3.53199953 -1.95216435 1.95216435 0 0 Z " fill="#303454" transform="translate(226,322)"/>
<path d="M0 0 C0.33 0 0.66 0 1 0 C1.13535156 0.73863281 1.27070313 1.47726563 1.41015625 2.23828125 C2.94831943 9.48699036 5.33128135 14.71463943 9.671875 20.72265625 C10.11015625 21.47417969 10.5484375 22.22570312 11 23 C10.67 23.99 10.34 24.98 10 26 C3.54816232 17.37398141 -0.58534906 10.92651571 0 0 Z " fill="#323245" transform="translate(243,178)"/>
<path d="M0 0 C3.63 0 7.26 0 11 0 C10.67 1.32 10.34 2.64 10 4 C7.69 4 5.38 4 3 4 C3 6.97 3 9.94 3 13 C2.67 13 2.34 13 2 13 C1.93941406 12.22914063 1.87882812 11.45828125 1.81640625 10.6640625 C1.73261719 9.66117187 1.64882813 8.65828125 1.5625 7.625 C1.48128906 6.62726563 1.40007812 5.62953125 1.31640625 4.6015625 C1.15034374 2.02072387 1.15034374 2.02072387 0 0 Z " fill="#2F3153" transform="translate(301,318)"/>
<path d="M0 0 C0.66 0 1.32 0 2 0 C5 5.625 5 5.625 5 9 C2.36 9 -0.28 9 -3 9 C-2.01 6.03 -1.02 3.06 0 0 Z " fill="#D3D9E3" transform="translate(279,324)"/>
<path d="M0 0 C0.99 0 1.98 0 3 0 C3.1875 3.375 3.1875 3.375 3 7 C-0.8503105 9.56687367 -2.58569763 8.83288724 -7 8 C-5.6875 6.5 -5.6875 6.5 -4 5 C-3.01 5 -2.02 5 -1 5 C-0.67 3.35 -0.34 1.7 0 0 Z " fill="#191C3E" transform="translate(176,333)"/>
<path d="M0 0 C-3 2 -3 2 -6.5 3.875 C-9.45188023 5.52805293 -11.08517693 7.17815548 -13 10 C-13.66 10 -14.32 10 -15 10 C-13.56314642 4.97101246 -11.05763331 3.04322498 -7 0 C-4.3333581 -1.33332095 -2.83319697 -0.67102033 0 0 Z " fill="#343651" transform="translate(287,254)"/>
<path d="M0 0 C0.99 0.33 1.98 0.66 3 1 C3 1.99 3 2.98 3 4 C3.99 4 4.98 4 6 4 C5.67 4.99 5.34 5.98 5 7 C5 6.34 5 5.68 5 5 C4.34 5 3.68 5 3 5 C2.67 6.65 2.34 8.3 2 10 C1.67 9.34 1.34 8.68 1 8 C0.34 8 -0.32 8 -1 8 C-1.33 8.66 -1.66 9.32 -2 10 C-2.66 9.67 -3.32 9.34 -4 9 C-2.68 6.03 -1.36 3.06 0 0 Z " fill="#2E3151" transform="translate(276,319)"/>
<path d="M0 0 C2.0625 0.4375 2.0625 0.4375 4 1 C3.54965877 2.62723299 3.08944646 4.25173664 2.625 5.875 C2.36976563 6.77992188 2.11453125 7.68484375 1.8515625 8.6171875 C1 11 1 11 -1 13 C-0.67 10.69 -0.34 8.38 0 6 C-0.66 6 -1.32 6 -2 6 C-1.125 1.125 -1.125 1.125 0 0 Z " fill="#1D1F40" transform="translate(245,319)"/>
<path d="M0 0 C0.66 0.33 1.32 0.66 2 1 C2.02708567 2.60407328 2.04643483 4.2082785 2.0625 5.8125 C2.07410156 6.70582031 2.08570313 7.59914062 2.09765625 8.51953125 C2 11 2 11 1 14 C0.34 14 -0.32 14 -1 14 C-2.12029814 8.51053913 -1.79217969 5.16569441 0 0 Z " fill="#1F2040" transform="translate(269,235)"/>
<path d="M0 0 C0.99 0 1.98 0 3 0 C2.625 2.4375 2.625 2.4375 2 5 C-0.70879335 6.35439668 -3.00933268 6.06501451 -6 6 C-6.33 5.01 -6.66 4.02 -7 3 C-3.535 2.505 -3.535 2.505 0 2 C0 1.34 0 0.68 0 0 Z " fill="#171B3E" transform="translate(233,287)"/>
<path d="M0 0 C0.33 0 0.66 0 1 0 C1.33 5.61 1.66 11.22 2 17 C2.66 17 3.32 17 4 17 C4.33 16.01 4.66 15.02 5 14 C4.67 16.64 4.34 19.28 4 22 C3.67 20.68 3.34 19.36 3 18 C2.01 18 1.02 18 0 18 C-0.33 18.66 -0.66 19.32 -1 20 C-0.67 13.4 -0.34 6.8 0 0 Z " fill="#52546E" transform="translate(266,232)"/>
<path d="M0 0 C3.96 0 7.92 0 12 0 C12 1.65 12 3.3 12 5 C10.35 5 8.7 5 7 5 C7 3.68 7 2.36 7 1 C4.69 1 2.38 1 0 1 C0 0.67 0 0.34 0 0 Z " fill="#40425D" transform="translate(331,327)"/>
<path d="M0 0 C2 2 2 2 2 6 C0.02 6 -1.96 6 -4 6 C-4.33 4.35 -4.66 2.7 -5 1 C-3 0 -3 0 0 0 Z " fill="#2C304C" transform="translate(292,337)"/>
<path d="M0 0 C0.93423645 3.01031744 1.04449911 3.86650268 0 7 C0.33 6.67 0.66 6.34 1 6 C1.99 6.33 2.98 6.66 4 7 C4 7.99 4 8.98 4 10 C2.00045254 10.04254356 -0.00041636 10.04080783 -2 10 C-3 9 -3 9 -3.25 6.6875 C-2.95899829 3.55923162 -2.05619793 2.31322267 0 0 Z " fill="#161838" transform="translate(160,333)"/>
<path d="M0 0 C1.65 1.32 3.3 2.64 5 4 C4.67 4.99 4.34 5.98 4 7 C2.02 7 0.04 7 -2 7 C-2.33 5.68 -2.66 4.36 -3 3 C-2.01 3 -1.02 3 0 3 C0 2.01 0 1.02 0 0 Z " fill="#16193B" transform="translate(329,336)"/>
<path d="M0 0 C2.46800047 1.15173355 4.04783565 2.04783565 6 4 C8.65537372 4.56520003 11.29144713 4.73788198 14 5 C14 5.33 14 5.66 14 6 C4.89728097 7.59818731 4.89728097 7.59818731 1.375 5.25 C0 3 0 3 0 0 Z " fill="#F2EDDF" transform="translate(276,272)"/>
<path d="M0 0 C0.639375 0.2475 1.27875 0.495 1.9375 0.75 C2.2675 1.74 2.5975 2.73 2.9375 3.75 C4.95258358 4.48323796 4.95258358 4.48323796 6.9375 4.75 C5.266875 4.9665625 5.266875 4.9665625 3.5625 5.1875 C0.11607953 5.53372035 0.11607953 5.53372035 -2.0625 6.75 C-2.0625 5.43 -2.0625 4.11 -2.0625 2.75 C-2.7225 2.09 -3.3825 1.43 -4.0625 0.75 C-2.0625 -0.25 -2.0625 -0.25 0 0 Z " fill="#343752" transform="translate(250.0625,317.25)"/>
<path d="M0 0 C3.375 -0.125 3.375 -0.125 7 0 C7.66 0.66 8.32 1.32 9 2 C6.03 4.97 3.06 7.94 0 11 C-0.66 10.67 -1.32 10.34 -2 10 C0.31 7.36 2.62 4.72 5 2 C3.35 1.67 1.7 1.34 0 1 C0 0.67 0 0.34 0 0 Z " fill="#CFD2DB" transform="translate(231,316)"/>
<path d="M0 0 C3.96 0 7.92 0 12 0 C11.67 0.99 11.34 1.98 11 3 C7.04 3 3.08 3 -1 3 C-0.67 2.01 -0.34 1.02 0 0 Z " fill="#16183A" transform="translate(209,291)"/>
<path d="M0 0 C1.58367747 0.14204741 3.16693318 0.28880153 4.75 0.4375 C5.63171875 0.51871094 6.5134375 0.59992188 7.421875 0.68359375 C9.69350452 0.96238465 11.79851823 1.38790577 14 2 C11.05916436 3.96055709 10.31872048 4.31214545 7 4.375 C6.319375 4.40335937 5.63875 4.43171875 4.9375 4.4609375 C2.20328317 3.8104585 1.45991619 2.30849248 0 0 Z " fill="#E3BA67" transform="translate(279,273)"/>
<path d="M0 0 C3.96 0.33 7.92 0.66 12 1 C11.34 1.66 10.68 2.32 10 3 C9.01 2.67 8.02 2.34 7 2 C7 2.66 7 3.32 7 4 C4.03 3.67 1.06 3.34 -2 3 C-1.34 2.01 -0.68 1.02 0 0 Z " fill="#55566D" transform="translate(286,253)"/>
<path d="M0 0 C2.64 0 5.28 0 8 0 C7.01 0.495 7.01 0.495 6 1 C5.67 1.99 5.34 2.98 5 4 C2.69 4 0.38 4 -2 4 C-1.34 2.68 -0.68 1.36 0 0 Z " fill="#191B3C" transform="translate(278,333)"/>
<path d="M0 0 C0.33 0 0.66 0 1 0 C1.04898437 0.60328125 1.09796875 1.2065625 1.1484375 1.828125 C1.22320312 2.62734375 1.29796875 3.4265625 1.375 4.25 C1.44460938 5.03890625 1.51421875 5.8278125 1.5859375 6.640625 C2.01507113 9.085877 2.78600638 10.84836903 4 13 C3.01 13 2.02 13 1 13 C-1.60585556 9.09121666 -1.22321871 5.53878034 -1 1 C-0.67 0.67 -0.34 0.34 0 0 Z " fill="#202441" transform="translate(273,263)"/>
<path d="M0 0 C0.99 0.33 1.98 0.66 3 1 C3 2.32 3 3.64 3 5 C1.02 5.99 1.02 5.99 -1 7 C-2 4 -2 4 -1.0625 1.8125 C-0.5365625 0.9153125 -0.5365625 0.9153125 0 0 Z " fill="#202343" transform="translate(228,320)"/>
<path d="M0 0 C0.66 0.33 1.32 0.66 2 1 C1.5359375 1.7425 1.5359375 1.7425 1.0625 2.5 C-0.41644382 5.97986781 -0.62402851 9.24028509 -1 13 C-1.66 12.67 -2.32 12.34 -3 12 C-3.36923077 4.61538462 -3.36923077 4.61538462 -1.5 1.5 C-1.005 1.005 -0.51 0.51 0 0 Z " fill="#E5BF71" transform="translate(280,260)"/>
<path d="M0 0 C0.33 0.99 0.66 1.98 1 3 C-0.85625 2.938125 -0.85625 2.938125 -2.75 2.875 C-6.01637962 2.86341709 -8.2146947 3.1431298 -11 5 C-10.625 3.0625 -10.625 3.0625 -10 1 C-6.78548731 -0.60725635 -3.56387464 -0.05748185 0 0 Z " fill="#FBF7E8" transform="translate(290,256)"/>
<path d="M0 0 C1.89685547 0.05220703 1.89685547 0.05220703 3.83203125 0.10546875 C5.74048828 0.14607422 5.74048828 0.14607422 7.6875 0.1875 C9.15123047 0.23970703 9.15123047 0.23970703 10.64453125 0.29296875 C10.64453125 0.62296875 10.64453125 0.95296875 10.64453125 1.29296875 C5.03453125 1.95296875 -0.57546875 2.61296875 -6.35546875 3.29296875 C-3.35546875 0.29296875 -3.35546875 0.29296875 0 0 Z " fill="#2A2B42" transform="translate(261.35546875,159.70703125)"/>
<path d="M0 0 C3.16115776 1.36983503 3.9927092 1.9890638 6 5 C6 5.99 6 6.98 6 8 C5.401875 7.67 4.80375 7.34 4.1875 7 C1.94613529 5.79212012 1.94613529 5.79212012 -1 6 C-0.67 4.02 -0.34 2.04 0 0 Z " fill="#2D2F51" transform="translate(186,332)"/>
<path d="M0 0 C0.33 0 0.66 0 1 0 C1 1.98 1 3.96 1 6 C4.3 6 7.6 6 11 6 C11 6.33 11 6.66 11 7 C7.37 7 3.74 7 0 7 C0 7.66 0 8.32 0 9 C-0.99 8.67 -1.98 8.34 -3 8 C-3 7.34 -3 6.68 -3 6 C-2.34 5.67 -1.68 5.34 -1 5 C-0.34444881 2.47266765 -0.34444881 2.47266765 0 0 Z " fill="#444864" transform="translate(161,332)"/>
<path d="M0 0 C4.00458831 0.61609051 6.83019669 2.55060653 10 5 C10 5.99 10 6.98 10 8 C4.98886765 6.5682479 3.05530451 4.01554307 0 0 Z " fill="#464559" transform="translate(180,279)"/>
<path d="M0 0 C2.15377564 2.62198774 3.40072174 4.64404172 4 8 C2.68 8 1.36 8 0 8 C-0.66 5.69 -1.32 3.38 -2 1 C-1.34 0.67 -0.68 0.34 0 0 Z " fill="#3F3E5A" transform="translate(264,216)"/>
<path d="M0 0 C-0.33 1.32 -0.66 2.64 -1 4 C-2.65 4 -4.3 4 -6 4 C-6.33 2.68 -6.66 1.36 -7 0 C-3.86650268 -1.04449911 -3.01031744 -0.93423645 0 0 Z " fill="#313551" transform="translate(264,337)"/>
<path d="M0 0 C0.99 0.33 1.98 0.66 3 1 C2.67 3.31 2.34 5.62 2 8 C1.34 8 0.68 8 0 8 C-0.66 7.34 -1.32 6.68 -2 6 C-2 5.01 -2 4.02 -2 3 C-1.34 3 -0.68 3 0 3 C0 2.01 0 1.02 0 0 Z " fill="#181A3E" transform="translate(274,326)"/>
<path d="M0 0 C0 0.66 0 1.32 0 2 C-2.31 2.33 -4.62 2.66 -7 3 C-6.04134491 5.33075929 -6.04134491 5.33075929 -3 7 C-5.9375 6.625 -5.9375 6.625 -9 6 C-9.33 5.34 -9.66 4.68 -10 4 C-9.67 3.34 -9.34 2.68 -9 2 C-2.88888889 0 -2.88888889 0 0 0 Z " fill="#383958" transform="translate(233,287)"/>
<path d="M0 0 C-0.66 0.66 -1.32 1.32 -2 2 C-5.2578125 1.9765625 -5.2578125 1.9765625 -9.125 1.625 C-10.40632813 1.51414063 -11.68765625 1.40328125 -13.0078125 1.2890625 C-13.99523437 1.19367188 -14.98265625 1.09828125 -16 1 C-16 0.67 -16 0.34 -16 0 C-10.31302429 -0.91397824 -5.68697571 -0.91397824 0 0 Z " fill="#606077" transform="translate(280,161)"/>
<path d="M0 0 C0.33 0.66 0.66 1.32 1 2 C1.66 2 2.32 2 3 2 C3.33 1.34 3.66 0.68 4 0 C4 0.66 4 1.32 4 2 C4.66 2.33 5.32 2.66 6 3 C5.67 3.66 5.34 4.32 5 5 C3.02 5 1.04 5 -1 5 C-0.67 3.35 -0.34 1.7 0 0 Z " fill="#323650" transform="translate(267,338)"/>
<path d="M0 0 C0.66 0 1.32 0 2 0 C3.06775224 1.96466413 4.06553465 3.96855359 5 6 C4.67 6.66 4.34 7.32 4 8 C2.68 7.34 1.36 6.68 0 6 C0 4.02 0 2.04 0 0 Z " fill="#333653" transform="translate(285,324)"/>
<path d="M0 0 C1.98 0.66 3.96 1.32 6 2 C5.67 3.65 5.34 5.3 5 7 C4.67 6.01 4.34 5.02 4 4 C2.35 4.33 0.7 4.66 -1 5 C-0.67 3.35 -0.34 1.7 0 0 Z " fill="#2E2F52" transform="translate(314,325)"/>
<path d="M0 0 C0.66 0.33 1.32 0.66 2 1 C-0.97 3.475 -0.97 3.475 -4 6 C-4.99 5.01 -5.98 4.02 -7 3 C-4.69631264 1.93347808 -2.35981813 0.93578995 0 0 Z " fill="#E7B652" transform="translate(252,288)"/>
<path d="M0 0 C6.59090909 3.18181818 6.59090909 3.18181818 8 6 C3.68607774 5.5206753 1.83430453 4.2542015 -1 1 C-0.67 0.67 -0.34 0.34 0 0 Z " fill="#43455B" transform="translate(276,276)"/>
<path d="M0 0 C0.33 0 0.66 0 1 0 C1.0270043 1.45823212 1.04639787 2.91660675 1.0625 4.375 C1.07410156 5.18710937 1.08570313 5.99921875 1.09765625 6.8359375 C1 9 1 9 0 11 C-0.66 11 -1.32 11 -2 11 C-2.66 9.68 -3.32 8.36 -4 7 C-3.01 7 -2.02 7 -1 7 C-0.67 4.69 -0.34 2.38 0 0 Z " fill="#E5B451" transform="translate(294,263)"/>
<path d="M0 0 C0.33 0 0.66 0 1 0 C1 2.31 1 4.62 1 7 C-0.98 7 -2.96 7 -5 7 C-5 6.01 -5 5.02 -5 4 C-3.35 4 -1.7 4 0 4 C0 2.68 0 1.36 0 0 Z " fill="#363A54" transform="translate(303,336)"/>
<path d="M0 0 C2.0625 0.4375 2.0625 0.4375 4 1 C4.33 2.98 4.66 4.96 5 7 C4.01 6.34 3.02 5.68 2 5 C1.34 5 0.68 5 0 5 C-0.5625 3.0625 -0.5625 3.0625 -1 1 C-0.67 0.67 -0.34 0.34 0 0 Z " fill="#191B3F" transform="translate(287,333)"/>
<path d="M0 0 C-2.66559313 1.77706209 -5.0280615 2.87548273 -8 4 C-8.33 3.01 -8.66 2.02 -9 1 C-5.64919071 -1.10976881 -3.77897651 -1.0497157 0 0 Z " fill="#3C3D53" transform="translate(287,254)"/>
<path d="M0 0 C0.66 0 1.32 0 2 0 C3.80230168 3.82989106 4.19622241 6.78121808 4 11 C1.6870518 8.6870518 1.50419025 7.52095125 0.875 4.375 C0.70742188 3.55773437 0.53984375 2.74046875 0.3671875 1.8984375 C0.24601562 1.27195313 0.12484375 0.64546875 0 0 Z " fill="#373649" transform="translate(302,187)"/>
<path d="M0 0 C0.639375 0.165 1.27875 0.33 1.9375 0.5 C4.04582216 1.24598544 4.04582216 1.24598544 6 0 C6 0.99 6 1.98 6 3 C4.02 3.99 4.02 3.99 2 5 C1.01 3.68 0.02 2.36 -1 1 C-0.67 0.67 -0.34 0.34 0 0 Z " fill="#2C2E4F" transform="translate(244,337)"/>
<path d="M0 0 C0 1.32 0 2.64 0 4 C-1.65 4.33 -3.3 4.66 -5 5 C-5.33 4.01 -5.66 3.02 -6 2 C-3 0 -3 0 0 0 Z " fill="#E5DFD8" transform="translate(243,289)"/>
<path d="M0 0 C2.6875 1.375 2.6875 1.375 5 3 C5 3.33 5 3.66 5 4 C2.69 4 0.38 4 -2 4 C-2.33 3.01 -2.66 2.02 -3 1 C-2.01 0.67 -1.02 0.34 0 0 Z " fill="#22253C" transform="translate(234,339)"/>
<path d="M0 0 C0.66 0 1.32 0 2 0 C2.25 7.625 2.25 7.625 0 11 C0 10.01 0 9.02 0 8 C-0.66 7.67 -1.32 7.34 -2 7 C-1.34 6.34 -0.68 5.68 0 5 C0.16687448 2.41645782 0.16687448 2.41645782 0 0 Z " fill="#333555" transform="translate(206,328)"/>
<path d="M0 0 C0.66 0 1.32 0 2 0 C2 0.66 2 1.32 2 2 C2.66 2 3.32 2 4 2 C4.33 1.34 4.66 0.68 5 0 C5 1.32 5 2.64 5 4 C3.68 4 2.36 4 1 4 C0.67 2.68 0.34 1.36 0 0 Z " fill="#232645" transform="translate(258,319)"/>
<path d="M0 0 C1.2065625 0.0309375 1.2065625 0.0309375 2.4375 0.0625 C2.125 2 2.125 2 1.4375 4.0625 C0.4475 4.3925 -0.5425 4.7225 -1.5625 5.0625 C-2.2225 3.7425 -2.8825 2.4225 -3.5625 1.0625 C-2.5625 0.0625 -2.5625 0.0625 0 0 Z " fill="#15173C" transform="translate(280.5625,317.9375)"/>
<path d="M0 0 C0.66 0.33 1.32 0.66 2 1 C1.67 2.32 1.34 3.64 1 5 C-0.65 5 -2.3 5 -4 5 C-4.33 4.01 -4.66 3.02 -5 2 C-2.525 2.495 -2.525 2.495 0 3 C0 2.01 0 1.02 0 0 Z " fill="#19193C" transform="translate(199,338)"/>
<path d="M0 0 C2.31 0 4.62 0 7 0 C7.66 1.98 8.32 3.96 9 6 C7.68 5.67 6.36 5.34 5 5 C5.33 3.68 5.66 2.36 6 1 C4.02 1.33 2.04 1.66 0 2 C0 1.34 0 0.68 0 0 Z " fill="#363953" transform="translate(277,317)"/>
<path d="M0 0 C1.65 0.99 3.3 1.98 5 3 C4.67 3.99 4.34 4.98 4 6 C2.35 5.67 0.7 5.34 -1 5 C-0.67 3.35 -0.34 1.7 0 0 Z " fill="#1A1C40" transform="translate(244,333)"/>
<path d="M0 0 C0.66 0 1.32 0 2 0 C2.99 2.31 3.98 4.62 5 7 C4.01 7.495 4.01 7.495 3 8 C0 3.375 0 3.375 0 0 Z " fill="#E0D6C6" transform="translate(271,272)"/>
<path d="M0 0 C0.33 0 0.66 0 1 0 C1 2.64 1 5.28 1 8 C1.66 8 2.32 8 3 8 C2.67 8.99 2.34 9.98 2 11 C1.01 10.67 0.02 10.34 -1 10 C-0.67 6.7 -0.34 3.4 0 0 Z " fill="#E4D2B2" transform="translate(295,264)"/>
<path d="M0 0 C0.99 0 1.98 0 3 0 C3 1.32 3 2.64 3 4 C2.34 4 1.68 4 1 4 C0.67 4.66 0.34 5.32 0 6 C-1.125 2.25 -1.125 2.25 0 0 Z " fill="#17183D" transform="translate(266,250)"/>
</svg>
